# xmcd
# 
# Track frame offsets:
#     150
#     14530
#     29741
#     42962
#     58540
#     69697
#     84531
#     95950
#     109254
#     123621
#     136463
#     152004
#     163901
#     177054
#     191337
#     203378
#     207185
#     228393
#     246823
#     268798
#     291325
#     314964
#     331337
#     343470
# 
# Disc length: 4758
# 
# Revision: 2
# Processed by: cddbd v1.5.2PL0 Copyright (c) Steve Scherf et al.
# Submitted via: fre:ac v1.0.31
# 
DISCID=79129418
DTITLE=Percy Sledge - The Atlantic Recordings Disc 4
DYEAR=2010
DGENRE=R&B
TTITLE0=Love is a Job
TTITLE1=Push Mr. Pride Aside
TTITLE2=That's the Way I Want to Live My Life
TTITLE3=Life's Little Ups and Downs
TTITLE4=What I Don't Know Won't Hurt Me
TTITLE5=I Found a Love
TTITLE6=Time
TTITLE7=Everything You'll Ever Need
TTITLE8=Sunday Brother
TTITLE9=Rainbow Road
TTITLE10=Here I Am
TTITLE11=Same Old Loverman
TTITLE12=You Can Always Get it Where You Got It
TTITLE13=Sunshine
TTITLE14=Unchanging Love
TTITLE15=Introduction (live)
TTITLE16=Cover Me (live)
TTITLE17=Knock on Wood (live)
TTITLE18=Any Day Now (live)
TTITLE19=Come Softly to Me (live)
TTITLE20=Heart of a Child (live)
TTITLE21=Silent Night
TTITLE22=Christmas Wish
TTITLE23=When A Man Loves A Woman (alternate take)
EXTD=
EXTT0=
EXTT1=
EXTT2=
EXTT3=
EXTT4=
EXTT5=
EXTT6=
EXTT7=
EXTT8=
EXTT9=
EXTT10=
EXTT11=
EXTT12=
EXTT13=
EXTT14=
EXTT15=
EXTT16=
EXTT17=
EXTT18=
EXTT19=
EXTT20=
EXTT21=
EXTT22=
EXTT23=
PLAYORDER=
